HIERARCHY
ROOT Hips
{
	OFFSET 0.000000 0.000000 0.000000
	CHANNELS 6 Xposition Yposition Zposition Zrotation Yrotation Xrotation 
	JOINT LHipJoint
	{
		OFFSET 0.000000 0.000000 0.000000
		CHANNELS 3 Zrotation Yrotation Xrotation
		JOINT LeftUpLeg
		{
			OFFSET 1.363060 -1.794630 0.839290
			CHANNELS 3 Zrotation Yrotation Xrotation
			JOINT LeftLeg
			{
				OFFSET 2.448110 -6.726130 0.000000
				CHANNELS 3 Zrotation Yrotation Xrotation
				JOINT LeftFoot
				{
					OFFSET 2.562200 -7.039590 0.000000
					CHANNELS 3 Zrotation Yrotation Xrotation
					JOINT LeftToeBase
					{
						OFFSET 0.157640 -0.433110 2.322550
						CHANNELS 3 Zrotation Yrotation Xrotation
						End Site
						{
							OFFSET 0.000000 0.000000 0.000000
						}
					}
				}
			}
		}
	}
	JOINT RHipJoint
	{
		OFFSET 0.000000 0.000000 0.000000
		CHANNELS 3 Zrotation Yrotation Xrotation
		JOINT RightUpLeg
		{
			OFFSET -1.305520 -1.794630 0.839290
			CHANNELS 3 Zrotation Yrotation Xrotation
			JOINT RightLeg
			{
				OFFSET -2.542530 -6.985550 0.000000
				CHANNELS 3 Zrotation Yrotation Xrotation
				JOINT RightFoot
				{
					OFFSET -2.568260 -7.056230 0.000000
					CHANNELS 3 Zrotation Yrotation Xrotation
					JOINT RightToeBase
					{
						OFFSET -0.164730 -0.452590 2.363150
						CHANNELS 3 Zrotation Yrotation Xrotation
						End Site
						{
							OFFSET 0.000000 0.000000 0.000000
						}
					}
				}
			}
		}
	}
	JOINT LowerBack
	{
		OFFSET 0.000000 0.000000 0.000000
		CHANNELS 3 Zrotation Yrotation Xrotation
		JOINT Spine
		{
			OFFSET 0.028270 2.035590 -0.193380
			CHANNELS 3 Zrotation Yrotation Xrotation
			JOINT Spine1
			{
				OFFSET 0.056720 2.048850 -0.042750
				CHANNELS 3 Zrotation Yrotation Xrotation
				JOINT Neck
				{
					OFFSET 0.000000 0.000000 0.000000
					CHANNELS 3 Zrotation Yrotation Xrotation
					JOINT Neck1
					{
						OFFSET -0.054170 1.746240 0.172020
						CHANNELS 3 Zrotation Yrotation Xrotation
						JOINT Head
						{
							OFFSET 0.104070 1.761360 -0.123970
							CHANNELS 3 Zrotation Yrotation Xrotation
							End Site
							{
								OFFSET 0.000000 0.000000 0.000000
							}
						}
					}
				}
				JOINT LeftShoulder
				{
					OFFSET 0.000000 0.000000 0.000000
					CHANNELS 3 Zrotation Yrotation Xrotation
					JOINT LeftArm
					{
						OFFSET 3.362410 1.200890 -0.311210
						CHANNELS 3 Zrotation Yrotation Xrotation
						JOINT LeftForeArm
						{
							OFFSET 4.983000 -0.000000 -0.000000
							CHANNELS 3 Zrotation Yrotation Xrotation
							JOINT LeftHand
							{
								OFFSET 3.483560 -0.000000 -0.000000
								CHANNELS 3 Zrotation Yrotation Xrotation
								JOINT LeftFingerBase
								{
									OFFSET 0.000000 0.000000 0.000000
									CHANNELS 3 Zrotation Yrotation Xrotation
									JOINT LeftHandIndex1
									{
										OFFSET 0.715260 -0.000000 -0.000000
										CHANNELS 3 Zrotation Yrotation Xrotation
										End Site
										{
											OFFSET 0.000000 0.000000 0.000000
										}
									}
								}
								JOINT LThumb
								{
									OFFSET 0.000000 0.000000 0.000000
									CHANNELS 3 Zrotation Yrotation Xrotation
									End Site
									{
										OFFSET 0.000000 0.000000 0.000000
									}
								}
							}
						}
					}
				}
				JOINT RightShoulder
				{
					OFFSET 0.000000 0.000000 0.000000
					CHANNELS 3 Zrotation Yrotation Xrotation
					JOINT RightArm
					{
						OFFSET -3.136600 1.374050 -0.404650
						CHANNELS 3 Zrotation Yrotation Xrotation
						JOINT RightForeArm
						{
							OFFSET -5.241900 -0.000000 -0.000000
							CHANNELS 3 Zrotation Yrotation Xrotation
							JOINT RightHand
							{
								OFFSET -3.444170 -0.000000 -0.000000
								CHANNELS 3 Zrotation Yrotation Xrotation
								JOINT RightFingerBase
								{
									OFFSET 0.000000 0.000000 0.000000
									CHANNELS 3 Zrotation Yrotation Xrotation
									JOINT RightHandIndex1
									{
										OFFSET -0.622530 -0.000000 -0.000000
										CHANNELS 3 Zrotation Yrotation Xrotation
										End Site
										{
											OFFSET 0.000000 0.000000 0.000000
										}
									}
								}
								JOINT RThumb
								{
									OFFSET 0.000000 0.000000 0.000000
									CHANNELS 3 Zrotation Yrotation Xrotation
									End Site
									{
										OFFSET 0.000000 0.000000 0.000000
									}
								}
							}
						}
					}
				}
			}
		}
	}
}
MOTION
Frames: 12
Frame Time: 0.008333
-21.003821 16.251526 0.060010 -6.040227 85.030789 19.906832 -8.830508 -1.417921 3.245049 -4.710042 -10.663688 -61.292429 -0.607414 1.727138 37.896056 2.014209 9.103225 -3.321065 1.307500 -0.000000 -27.121899 9.744871 -2.905066 -2.160314 5.973547 -3.084880 -0.050382 1.951427 -1.320283 19.477577 0.641566 6.580060 4.235333 1.036400 -0.000000 -86.603500 -8.594249 0.850997 0.551562 -2.313760 1.290955 -2.545545 -4.525401 1.210355 1.891617 6.678804 -5.061208 -6.768618 -2.253284 -0.176116 0.052540 0.000000 0.000000 0.000000 -8.572042 15.137618 1.692295 -52.658258 25.120685 18.417599 -4.406426 -25.203124 -0.032915 -10.602321 2.164674 -0.213617 -0.098699 -0.154262 -0.000000 0.000000 0.000000 0.000000 0.000000 0.000000 0.000000 8.871090 -1.052377 2.162640 30.636936 29.559890 21.118293 0.662850 76.851887 0.034736 10.555427 10.637373 1.031738 -0.146361 -0.345118 0.000000 0.000000 0.000000 0.000000 0.000000 0.000000 0.000000 
-20.791427 16.281950 0.052087 -5.083311 84.935485 20.654505 -8.883604 -1.376582 3.091340 -5.267655 -10.251394 -60.458666 -0.659282 1.773020 38.514960 1.975401 8.871037 -3.981047 1.144900 0.000000 -27.125700 9.950996 -3.022699 -2.287816 5.409173 -4.071156 -1.355038 1.652261 -1.678834 22.507045 0.608427 7.058169 7.432633 1.517600 -0.000000 -88.739900 -8.949810 0.767558 0.736486 -2.393831 1.224166 -2.514943 -4.573734 1.146414 1.869713 6.850620 -5.107097 -6.718733 -2.283727 -0.178710 0.061623 0.000000 0.000000 0.000000 -8.580699 14.804291 1.726439 -53.088946 24.560783 17.809362 -4.417877 -24.895438 -0.032202 -10.538822 2.259191 -0.220610 -0.098912 -0.150432 -0.000000 0.000000 0.000000 0.000000 0.000000 0.000000 0.000000 9.144448 -1.152527 2.151868 30.768615 29.037400 21.260975 0.647842 77.261030 0.034840 10.554531 10.693522 1.037031 -0.145929 -0.346175 0.000000 0.000000 0.000000 0.000000 0.000000 0.000000 0.000000 
-20.580838 16.315006 0.042640 -3.898058 84.912871 21.618179 -8.929513 -1.334019 2.942776 -5.844227 -9.883404 -59.514896 -0.729268 1.796605 38.982550 1.934731 8.598796 -4.817179 0.955100 0.000000 -27.226401 10.165121 -3.102401 -2.425954 4.854690 -5.136502 -2.775974 1.326058 -2.000402 25.647150 0.498223 7.286469 10.722811 2.020800 0.000000 -89.698999 -9.258490 0.657114 0.939044 -2.464169 1.127828 -2.476770 -4.628224 1.053525 1.857859 7.013980 -5.154922 -6.664820 -2.322381 -0.181916 0.071376 0.000000 0.000000 0.000000 -8.558398 14.472671 1.761937 -53.512324 23.927446 17.406172 -4.417050 -24.733727 -0.031474 -10.497674 2.330572 -0.225901 -0.098467 -0.146544 -0.000000 0.000000 0.000000 0.000000 0.000000 0.000000 0.000000 9.452357 -1.276070 2.135998 30.947249 28.561152 21.434835 0.639347 77.520437 0.034766 10.548259 10.740041 1.040627 -0.145096 -0.345851 0.000000 0.000000 0.000000 0.000000 0.000000 0.000000 0.000000 
-20.372125 16.350439 0.031792 -2.406547 84.973344 22.883892 -8.965730 -1.293808 2.804122 -6.429408 -9.582159 -58.462817 -0.811443 1.794362 39.287128 1.897342 8.319780 -5.766601 0.754100 -0.000001 -27.398400 10.381527 -3.137933 -2.570316 4.324540 -6.240110 -4.293361 0.996068 -2.278150 28.861733 0.314690 7.175975 13.952675 2.452699 0.000000 -89.302500 -9.515796 0.517785 1.152506 -2.523695 1.000094 -2.434566 -4.689552 0.929566 1.846843 7.164903 -5.191786 -6.599760 -2.368519 -0.185794 0.084034 0.000000 0.000000 0.000000 -8.519771 14.108772 1.798601 -53.907704 23.279030 17.197891 -4.405267 -24.762223 -0.030774 -10.483168 2.381223 -0.229889 -0.097459 -0.142790 -0.000000 0.000000 0.000000 0.000000 0.000000 0.000000 0.000000 9.780933 -1.408935 2.116516 31.200595 28.100465 21.625879 0.638408 77.631221 0.034598 10.553909 10.769581 1.043726 -0.143954 -0.343998 0.000000 0.000000 0.000000 0.000000 0.000000 0.000000 0.000000 
-20.165406 16.388170 0.019448 -0.690464 85.109719 24.378657 -8.991112 -1.254117 2.680660 -6.999654 -9.353979 -57.313687 -0.899674 1.766180 39.422866 1.867085 8.059363 -6.765717 0.554700 -0.000000 -27.609000 10.591166 -3.125343 -2.717011 3.847211 -7.332223 -5.885164 0.685260 -2.511241 32.113984 0.071308 6.638567 16.939849 2.694800 0.000000 -87.563600 -9.709230 0.353381 1.369118 -2.570124 0.844427 -2.389618 -4.757939 0.777905 1.837743 7.302594 -5.220398 -6.527909 -2.421253 -0.190219 0.098572 0.000000 0.000000 0.000000 -8.469803 13.724891 1.836244 -54.263433 22.603411 17.194992 -4.382805 -24.980138 -0.030088 -10.492870 2.409379 -0.232274 -0.095953 -0.139136 -0.000000 0.000000 0.000000 0.000000 0.000000 0.000000 0.000000 10.124541 -1.550566 2.093119 31.534905 27.655571 21.822601 0.645569 77.588532 0.034348 10.573192 10.782812 1.046428 -0.142494 -0.340648 0.000000 0.000000 0.000000 0.000000 0.000000 0.000000 0.000000 
-19.960524 16.428319 0.005805 1.275407 85.315563 26.133724 -9.003233 -1.214716 2.575079 -7.543316 -9.205014 -56.072639 -0.988895 1.711612 39.381509 1.846552 7.840178 -7.751529 0.366800 0.000000 -27.823500 10.790498 -3.068120 -2.864716 3.434569 -8.381372 -7.539115 0.411338 -2.708862 35.376969 -0.213110 5.618746 19.500842 2.639200 0.000000 -84.708000 -9.837128 0.167155 1.584655 -2.603511 0.664203 -2.342389 -4.833364 0.601874 1.832416 7.429767 -5.244975 -6.455328 -2.479618 -0.195029 0.113335 0.000000 0.000000 0.000000 -8.407744 13.337293 1.875732 -54.569740 21.874190 17.400937 -4.350631 -25.371234 -0.029374 -10.521384 2.412763 -0.232955 -0.094050 -0.135458 -0.000000 0.000000 0.000000 0.000000 0.000000 0.000000 0.000000 10.481369 -1.701773 2.065217 31.956810 27.225557 22.010445 0.661445 77.388210 0.034026 10.603671 10.783782 1.048833 -0.140648 -0.335950 0.000000 0.000000 0.000000 0.000000 0.000000 0.000000 0.000000 
-19.757289 16.471113 -0.009805 3.069268 85.550806 27.736302 -9.010732 -1.164627 2.494061 -8.014543 -9.107806 -54.772819 -1.074338 1.639062 39.170731 1.835309 7.664527 -8.674961 0.196100 0.000000 -28.015700 10.962142 -2.967621 -3.009075 3.137738 -9.331932 -9.242538 0.176466 -2.877639 38.618405 -0.518910 4.082772 21.481378 2.210701 -0.000000 -81.106700 -9.873887 -0.024116 1.785582 -2.619320 0.475045 -2.297285 -4.917034 0.416803 1.828068 7.541326 -5.261422 -6.384283 -2.542579 -0.200134 0.128154 0.000000 0.000000 0.000000 -8.354861 12.954346 1.915395 -54.812623 21.090983 17.790542 -4.309653 -25.930065 -0.028630 -10.565441 2.395398 -0.232032 -0.091885 -0.131733 -0.000000 0.000000 0.000000 0.000000 0.000000 0.000000 0.000000 10.837295 -1.847850 2.034042 32.471775 26.792947 22.174253 0.686488 77.030921 0.033658 10.639907 10.779182 1.051144 -0.138252 -0.330109 0.000000 0.000000 0.000000 0.000000 0.000000 0.000000 0.000000 
-19.556018 16.517072 -0.025649 5.319335 85.836666 29.810927 -8.997747 -1.116681 2.428282 -8.463541 -9.092179 -53.379726 -1.154942 1.539619 38.762498 1.834641 7.559707 -9.480462 0.049000 0.000000 -28.158100 11.129713 -2.841325 -3.152346 2.893950 -10.203698 -11.001351 -0.014158 -3.042179 41.821098 -0.833007 2.098615 22.778334 1.427901 0.000000 -77.219100 -9.864708 -0.229024 1.982307 -2.627519 0.270467 -2.252885 -5.008962 0.216290 1.820365 7.650732 -5.267874 -6.313649 -2.609418 -0.205469 0.142780 0.000000 0.000000 0.000000 -8.283989 12.553619 1.960476 -54.993080 20.254534 18.324427 -4.263738 -26.629144 -0.027801 -10.614927 2.351352 -0.228705 -0.089641 -0.127793 -0.000000 0.000000 0.000000 0.000000 0.000000 0.000000 0.000000 11.200879 -1.988358 1.999084 33.108223 26.333705 22.287207 0.721863 76.515569 0.033289 10.679256 10.755368 1.051862 -0.135149 -0.323167 0.000000 0.000000 0.000000 0.000000 0.000000 0.000000 0.000000 
-19.356410 16.566413 -0.042909 7.261387 86.109896 31.603824 -8.984728 -1.055071 2.384050 -8.829115 -9.100500 -51.946233 -1.228567 1.428595 38.178090 1.840001 7.502910 -10.148630 -0.074200 0.000000 -28.244000 11.265366 -2.688118 -3.286256 2.773276 -10.928208 -12.806077 -0.177401 -3.200914 44.945151 -1.143160 -0.259950 23.345159 0.352699 -0.000000 -73.353700 -9.777340 -0.422625 2.155778 -2.622085 0.073756 -2.214132 -5.110207 0.023286 1.810784 7.751249 -5.265101 -6.249739 -2.679198 -0.210904 0.156074 0.000000 0.000000 0.000000 -8.221959 12.167425 2.007532 -55.099008 19.338547 18.980105 -4.213426 -27.447183 -0.026891 -10.667877 2.288780 -0.223774 -0.087456 -0.123581 -0.000000 0.000000 0.000000 0.000000 0.000000 0.000000 0.000000 11.559631 -2.110597 1.961340 33.850008 25.844941 22.339599 0.767559 75.842497 0.032894 10.700506 10.735244 1.050886 -0.131047 -0.315613 0.000000 0.000000 0.000000 0.000000 0.000000 0.000000 0.000000 
-19.158228 16.619435 -0.060841 8.967676 86.360077 33.186743 -8.971717 -0.983612 2.354662 -9.128688 -9.122968 -50.467831 -1.296116 1.306338 37.410921 1.848907 7.492011 -10.660669 -0.171800 -0.000000 -28.270300 11.373885 -2.517226 -3.407356 2.753639 -11.497790 -14.656618 -0.320919 -3.362015 47.959497 -1.442772 -2.837377 23.194111 -0.878300 0.000000 -69.722500 -9.634871 -0.601621 2.306835 -2.608117 -0.110876 -2.181948 -5.220901 -0.158074 1.795930 7.848580 -5.249563 -6.191292 -2.751055 -0.216387 0.168223 0.000000 0.000000 0.000000 -8.158531 11.786988 2.058619 -55.132890 18.345580 19.712954 -4.161824 -28.358146 -0.025881 -10.719456 2.208261 -0.216935 -0.085493 -0.119018 -0.000000 0.000000 0.000000 0.000000 0.000000 0.000000 0.000000 11.913697 -2.207782 1.920710 34.707620 25.308051 22.310838 0.824107 75.012261 0.032490 10.690469 10.716896 1.046922 -0.125731 -0.307653 0.000000 0.000000 0.000000 0.000000 0.000000 0.000000 0.000000 
-18.961627 16.676271 -0.079124 10.308999 86.568015 34.429649 -8.964058 -0.903234 2.334483 -9.368366 -9.137100 -48.949639 -1.359206 1.175926 36.462602 1.857970 7.514369 -11.014776 -0.244200 0.000000 -28.242600 11.453025 -2.334172 -3.510761 2.826796 -11.898345 -16.546383 -0.452517 -3.526027 50.825229 -1.726001 -5.460480 22.386678 -2.109000 0.000000 -66.394800 -9.451215 -0.759809 2.433962 -2.588640 -0.276745 -2.157292 -5.341484 -0.321174 1.774489 7.947047 -5.223773 -6.138548 -2.824783 -0.221906 0.179133 0.000000 0.000000 0.000000 -8.090864 11.408716 2.113591 -55.095853 17.280479 20.481096 -4.111136 -29.343640 -0.024782 -10.768777 2.113488 -0.208593 -0.083870 -0.114107 -0.000000 0.000000 0.000000 0.000000 0.000000 0.000000 0.000000 12.267734 -2.279462 1.878314 35.671729 24.723043 22.190254 0.891635 74.024432 0.032082 10.627019 10.705034 1.038267 -0.118928 -0.299570 0.000000 0.000000 0.000000 0.000000 0.000000 0.000000 0.000000 
-18.766310 16.736709 -0.097527 11.109563 86.716945 35.154540 -8.968807 -0.815318 2.317472 -9.553625 -9.117877 -47.396244 -1.419795 1.040565 35.341398 1.863777 7.553207 -11.222861 -0.292900 0.000000 -28.171500 11.498931 -2.143389 -3.591765 2.984909 -12.120806 -18.463260 -0.577052 -3.689120 53.499960 -1.987054 -7.959970 21.026538 -3.195899 -0.000000 -63.372600 -9.237071 -0.891594 2.536772 -2.565372 -0.417890 -2.141232 -5.470167 -0.460182 1.743703 8.043091 -5.170451 -6.087471 -2.897912 -0.227322 0.189883 0.000000 0.000000 0.000000 -8.009943 11.043975 2.174741 -54.998269 16.130617 21.261802 -4.064007 -30.368175 -0.023568 -10.813687 2.002881 -0.198545 -0.082731 -0.108734 -0.000000 0.000000 0.000000 0.000000 0.000000 0.000000 0.000000 12.601452 -2.303377 1.830284 36.763249 24.053120 21.948949 0.969678 72.884468 0.031674 10.511933 10.697939 1.024921 -0.110858 -0.291490 -0.000000 0.000000 0.000000 0.000000 0.000000 0.000000 0.000000 
